<svg width="900" height="600" viewBox="0 0 900 600" fill="none" xmlns="http://www.w3.org/2000/svg">
<path d="M603.046 198.872C603.167 199.196 603.288 199.519 603.732 200.281C605.058 202.792 606.06 204.864 607.025 207.348C608.375 212.444 609.817 217.113 611.132 221.818C612.164 225.514 613.038 229.253 614.069 233.427C613.549 239.798 613.325 245.785 612.259 251.617C609.769 265.241 603.058 277.041 595.473 288.394C595.473 288.394 595.51 288.494 595.178 288.651C592.157 291.95 589.626 295.246 586.747 298.203C578.906 306.256 570.918 314.166 562.68 322.266C559.342 325.292 556.313 328.183 553.284 331.075C541.989 342.729 532.022 355.268 527.185 371.209C514.908 363.522 512.577 353.621 520.921 341.905C525.898 334.917 532.225 328.887 537.977 322.456C539.189 321.102 540.542 319.874 542.309 318.19C550.699 310.891 558.693 304.082 566.453 297.016C568.149 295.472 569.006 293.007 570.249 290.966C573.522 287.706 577.414 284.867 579.959 281.114C590.304 265.864 596.045 249.233 591.376 230.675C584.668 204.02 558.155 192.482 532.554 205.137C525.341 208.703 518.91 213.852 512.634 217.94C503.439 213.715 494.29 208.509 484.496 205.224C465.943 199.002 449.448 204.869 439.279 219.715C437.795 207.908 436.882 196.224 436.322 184.389C456.329 173.273 474.794 176.798 492.206 189.273C498.893 194.063 504.914 199.784 511.405 205.22C512.289 204.278 513.186 203.333 514.072 202.379C522.009 193.824 530.366 185.831 540.954 180.48C556.158 172.798 571.212 172.598 585.314 182.41C591.869 186.971 597.174 193.329 603.046 198.872Z" fill="#CE1B36"/>
<path d="M435.97 184.54C436.882 196.224 437.795 207.909 439.007 219.91C437.715 229.936 436.124 239.645 434.286 250.048C432.057 256.497 430.074 262.251 428.091 268.006C401.29 335.163 330.543 373.924 260.548 359.799C189.739 345.511 138.728 282.783 140.308 211.941C141.943 138.608 195.022 76.9101 266.454 66.4573C301.994 61.2566 335.798 67.1395 366.732 86.5091C397.391 105.707 418.562 132.395 430.846 166.972C431.251 168.064 431.498 168.564 431.745 169.064C432.01 170.192 432.275 171.32 432.728 173.123C433.933 177.379 434.951 180.959 435.97 184.54ZM302.909 355.513C348.848 350.305 384.722 328.269 409.329 289.373C454.396 218.136 427.907 124.871 352.484 86.7776C300.171 60.3559 236.533 69.266 193.535 109.033C147.753 151.374 134.672 214.737 159.836 272.266C183.651 326.711 243.085 361.577 302.909 355.513Z" fill="#373A58"/>
<path d="M553.608 331.136C556.313 328.183 559.342 325.292 562.821 322.436C563.421 322.745 563.642 322.932 563.937 323.034C568.393 334.707 574.646 345.217 584.465 353.173C593.712 360.664 603.913 361.657 613.458 354.575C620.837 349.1 627.333 342.227 633.429 335.28C643.189 324.16 651.695 311.894 661.889 301.218C668.32 294.484 676.455 289.08 684.547 284.3C697.135 276.865 711.063 279.914 718.008 290.932C723.11 299.025 722.107 307.506 718.037 315.7C716.695 318.402 716.118 320.36 717.947 323.31C721.619 329.229 720.333 336.235 715.375 341.701C705.947 352.095 686.905 351.591 677.893 340.709C671.721 333.255 673.236 322.736 681.124 317.016C687.917 312.089 695.495 310.804 703.425 312.488C706.738 313.192 707.907 312.058 708.239 309.459C708.717 305.7 709.373 301.797 708.843 298.115C707.941 291.851 702.086 288.785 695.486 290.612C686.19 293.185 678.573 298.699 672.42 305.779C661.627 318.196 651.427 331.129 640.99 343.855C634.288 352.025 626.876 359.373 617.335 364.237C602.419 371.84 586.786 370.486 574.826 358.745C567.701 351.751 562.518 342.778 556.468 334.691C555.606 333.539 554.777 332.362 553.608 331.136ZM698.139 339.777C699.996 339.096 702.022 338.69 703.675 337.676C706.812 335.752 708.897 333.017 708.137 329.016C707.364 324.947 701.506 321.019 696.606 321.185C691.01 321.373 686.343 325.061 685.873 329.665C685.372 334.586 688.239 337.843 694.437 339.346C695.395 339.578 696.384 339.678 698.139 339.777Z" fill="#939393"/>
<path d="M570.216 290.592C569.006 293.007 568.149 295.472 566.453 297.016C558.693 304.082 550.699 310.891 542.472 317.885C540.328 314.716 537.605 313.458 533.825 312.832C514.944 309.708 496.134 306.129 478.314 298.788C472.125 296.239 465.597 293.637 463.48 286.499C462.458 283.053 462.207 278.944 463.026 275.47C465.206 266.22 471.911 259.688 477.971 252.813C479.935 250.583 480.98 247.452 483.145 245.516C485.277 243.61 489.022 240.973 490.773 241.71C494.225 243.163 496.788 246.729 499.718 249.421C497.902 251.211 496.395 253.657 494.219 254.68C484.036 259.465 478.348 268.017 474.303 277.868C472.407 282.488 474.65 286.301 479.036 288.009C487.54 291.321 496.084 294.761 504.907 296.969C516.989 299.994 529.34 301.953 541.589 304.301C545.899 305.126 549.86 303.994 551.878 300.028C558.963 286.101 566.71 272.422 570.323 257.008C573.173 244.849 570.067 240.37 557.593 238.804C547.338 237.517 537.075 236.591 526.994 240.159C523.971 241.229 520.495 241.261 519.214 237.9C518.188 235.211 517.434 230.827 518.854 229.21C520.527 227.305 524.655 227.157 527.753 227.017C530.628 226.887 533.551 228.153 536.449 228.138C547.437 228.082 558.44 227.566 569.01 231.493C580.772 235.862 585.465 243.401 582.326 255.665C579.832 265.409 575.742 274.745 572.354 284.259C571.645 286.251 570.907 288.232 570.216 290.592Z" fill="#949292"/>
<path d="M428.457 268.118C430.074 262.251 432.057 256.497 434.204 250.484C436.515 260.207 438.663 270.189 441.101 281.518C436.522 276.562 432.673 272.396 428.457 268.118Z" fill="#C02845"/>
<path d="M609.718 210.951C610.979 216.153 612.201 221.267 613.63 226.702C613.903 227.778 613.969 228.531 614.173 229.638C614.25 230.74 614.189 231.487 614.055 232.604C613.038 229.253 612.164 225.514 611.132 221.819C609.817 217.113 608.375 212.444 607.3 207.545C608.311 208.444 609.01 209.558 609.709 210.672C609.709 210.672 609.679 210.863 609.718 210.951Z" fill="#B73E51"/>
<path d="M302.454 355.587C243.085 361.576 183.651 326.711 159.835 272.266C134.672 214.737 147.753 151.374 193.535 109.032C236.533 69.2659 300.171 60.3557 352.484 86.7774C427.907 124.871 454.396 218.136 409.329 289.373C384.722 328.269 348.848 350.305 302.454 355.587ZM335.79 85.1068C309.939 75.7879 283.693 73.9549 256.193 80.9418C225.895 88.5038 201.111 104.718 181.752 129.074C170.269 143.521 161.709 159.595 156.929 178.315C155.532 187.118 153.856 195.888 152.799 204.732C150.947 220.225 153.128 235.379 157.518 251.064C160.902 259.708 163.416 268.825 167.815 276.917C191.071 319.691 227.088 344.264 275.511 349.753C285.593 350.895 295.975 349.385 307.059 349.309C318.45 346.352 330.436 344.782 341.125 340.192C381.557 322.83 408.76 293.261 420.883 249.713C422.425 241.273 424.606 232.891 425.372 224.381C426.822 208.269 425.489 192.293 420.347 176.006C411.628 145.691 394.433 121.161 368.907 102.839C360.545 96.8375 350.769 92.8076 341.174 87.2871C339.564 86.7171 337.955 86.147 335.79 85.1068Z" fill="white"/>
<path d="M509.363 182.777C498.761 181.34 491.794 175.823 488.436 166.147C485.33 157.197 487.309 149.059 493.526 142.04C501.061 133.533 512.532 131.65 523.057 136.978C532.341 141.678 537.624 153.133 535.318 163.562C532.917 174.415 523.695 182.325 512.784 182.867C511.79 182.916 510.789 182.828 509.363 182.777Z" fill="#10B055"/>
<path d="M157.515 250.267C153.128 235.379 150.947 220.225 152.799 204.732C153.856 195.888 155.532 187.118 157.595 178.078C159.843 177.886 161.425 177.932 163.362 178.143C167.294 178.211 170.872 178.028 174.45 178.027C227.86 178.01 281.27 178.018 334.68 178.019C358.842 178.02 383.004 177.985 407.167 178.072C409.669 178.081 412.168 178.813 415.472 179.338C415.849 178.989 416.923 177.997 418.406 176.985C419.356 176.903 419.897 176.841 420.438 176.779C425.489 192.293 426.822 208.269 425.372 224.381C424.606 232.891 422.425 241.273 420.286 249.763C417.686 248.698 415.762 246.896 413.657 246.65C411.234 246.367 408.651 247.889 406.137 247.891C334.245 247.969 262.353 248.003 190.462 247.879C183.466 247.867 176.473 246.78 169.475 246.234C168.852 246.186 168.202 246.444 167.569 246.58C165.375 247.051 163.182 247.532 160.638 248.061C159.362 248.832 158.439 249.549 157.515 250.267ZM346.138 193.988C343.756 193.991 341.374 193.995 338.532 193.715C338.355 193.22 338.179 192.725 338.299 191.652C338.828 190.522 339.357 189.392 340.087 187.708C339.771 187.002 339.622 185.953 339.089 185.693C338.621 185.465 337.721 186.12 336.339 186.586C335.886 186.706 335.433 186.826 334.569 186.468C332.468 186.562 330.365 186.761 328.266 186.724C325.487 186.675 322.694 186.216 319.949 186.446C319.268 186.503 318.106 188.705 318.346 189.606C318.576 190.465 320.347 190.912 321.232 191.804C321.232 191.804 321.482 191.581 321.118 192.357C317.585 192.621 314.052 192.884 310.159 193.174C311.575 194.204 312.849 195.131 314.111 196.715C314.055 197.148 313.999 197.581 313.452 198.357C312.681 198.904 311.91 199.452 310.605 199.553C303.092 193.056 294.885 194.526 291.892 203.16C293.101 204.061 294.378 205.013 295.616 205.936C296.286 205.479 296.657 205.079 297.107 204.946C299.023 204.378 300.945 203.741 302.91 203.516C303.238 203.478 304.43 205.846 304.114 206.264C303.026 207.701 301.317 208.649 300.092 210.007C298.963 211.258 298.153 212.797 297.203 214.209C297.888 214.058 298.573 213.908 299.258 213.757C301.432 215.691 304.057 217.342 305.54 219.709C306.068 220.551 304.266 223.961 302.762 224.763C298.014 227.297 296.342 222.89 294.387 219.924C289.014 222.855 288.756 224.475 292.797 228.407C296.623 232.129 301.279 233.065 306.196 231.576C311.223 230.055 313.43 226.044 314.525 220.94C315.018 220.101 315.512 219.263 316.006 218.425C317.015 222.542 316.556 226.64 317.213 230.551C317.53 232.437 319.683 234.505 321.533 235.421C322.381 235.84 324.506 233.678 326.203 232.386C326.363 232.205 326.564 232.122 327.492 231.591C327.675 221.689 327.858 211.788 328.661 201.642C329.091 201.717 329.522 201.792 329.948 202.822C329.97 210.891 329.922 218.96 330.07 227.026C330.1 228.674 330.863 230.308 331.948 232.207C334.082 232.439 336.217 232.671 339.246 232.831C339.825 231.989 340.892 231.154 340.907 230.302C341.042 222.734 341.046 215.162 340.921 207.594C340.906 206.729 339.866 205.882 339.069 204.183C339.895 199.087 343.611 202.467 346.102 202.214C346.397 202.164 346.691 202.114 347.677 202.255C351.045 206.726 350.907 209.398 346.318 211.91C343.355 213.531 343.78 215.455 344.603 217.645C347.308 224.844 354.871 226.484 363.006 224.542C363.006 227.193 363.006 229.726 363.006 232.809C365.813 232.485 368.049 232.228 371.026 231.728C371.354 230.215 371.93 228.709 371.966 227.189C372.095 221.791 372.039 216.389 372.861 210.997C373.67 211.027 374.479 211.057 375.198 211.762C374.84 212.826 374.483 213.89 373.563 215.316C373.77 216.234 373.976 217.153 374.593 218.645C375.996 224.647 378.73 229.602 384.645 232.187C387.485 228.978 387.667 226.395 384.46 223.836C383.48 223.053 382.392 221.665 382.39 220.552C382.387 218.406 382.512 215.727 383.76 214.293C384.638 213.284 387.46 213.95 389.415 213.929C389.548 213.928 389.687 214.435 389.897 214.851C388.916 215.768 387.916 216.704 386.828 217.722C388.004 219.467 388.994 220.934 390.092 222.563C394.209 220.198 397.982 218.031 402.555 215.404C402.555 221.68 402.555 226.923 402.555 232.208C405.262 232.208 407.477 232.208 410.068 232.208C410.068 221.897 410.068 211.972 410.068 201.959C412.186 201.664 413.942 201.419 415.981 201.135C415.981 199.319 415.981 197.68 416.182 195.462C415.143 194.971 414.105 194.481 412.121 193.989C391.741 193.991 371.361 193.994 350.191 193.999C349.137 193.997 348.084 193.996 346.138 193.988ZM186.094 192.037C185.888 189.957 186.084 187.698 185.275 185.889C184.96 185.186 181.932 184.848 180.933 185.521C179.713 186.342 178.688 188.437 178.77 189.916C178.842 191.211 180.561 192.415 180.557 193.864C176.008 193.909 171.451 193.822 166.914 194.078C165.569 194.154 164.279 195.193 162.756 196.674C162.042 201.074 163.386 203.365 168.344 202.647C171.375 202.208 174.485 202.308 177.559 202.166C177.344 203.654 176.472 204.777 175.445 204.942C173.331 205.282 171.1 204.88 168.979 205.199C165.235 205.762 163.132 208.201 162.642 211.898C162.182 215.366 163.903 217.833 167.043 218.855C170.299 219.915 173.763 220.318 177.105 221.133C178.143 221.386 179.627 221.837 179.916 222.581C180.225 223.38 179.68 224.976 178.964 225.623C176.467 227.881 174.301 227.504 171.617 225.157C170.113 223.842 166.961 223.615 164.836 224.112C163.58 224.405 161.801 227.396 162.166 228.594C162.798 230.672 164.767 232.447 166.44 234.077C168.204 235.794 170.35 237.112 172.191 238.758C173.517 239.943 174.616 241.382 176.121 243.044C177.725 241.324 179.008 239.948 180.166 238.706C179.031 236.88 178.202 235.544 177.191 233.918C179.179 233.255 180.774 232.853 182.261 232.203C186.664 230.277 188.29 226.628 187.928 222.093C187.573 217.63 184.377 215.932 180.438 215.455C177.973 215.156 175.427 215.479 172.976 215.121C171.532 214.909 170.202 213.911 168.82 213.266C168.947 212.615 169.075 211.964 169.202 211.313C174.484 211.313 179.766 211.313 185.15 211.313C185.377 207.533 185.543 204.777 185.713 201.959C187.934 201.959 189.797 201.959 192.074 201.959C192.074 212.263 192.074 222.184 192.074 232.775C194.947 232.467 197.343 232.209 200.467 231.511C200.659 221.634 200.85 211.757 201.807 201.653C202.854 201.734 203.9 201.815 205.319 202.426C206.223 202.262 207.127 202.097 208.908 201.655C209.074 201.643 209.248 201.592 209.405 201.624C211.928 202.136 214.449 202.658 216.97 203.177C214.692 203.808 212.144 203.995 210.206 205.18C207.712 206.706 204.833 208.667 203.8 211.141C203.107 212.803 204.684 216.768 206.386 217.776C209.463 219.598 213.417 219.905 216.958 220.997C218.413 221.446 219.746 222.292 221.135 222.957C220.01 224.183 218.956 226.365 217.747 226.454C214.247 226.71 210.684 226.126 206.305 225.811C205.984 226.231 205.053 227.45 204.108 228.687C213.676 235.17 223.74 233.525 229.704 224.89C231.329 224.53 232.955 224.171 235.347 223.883C239.439 224.373 243.531 224.862 248.121 225.411C248.121 227.134 248.121 229.562 248.121 232.204C250.714 232.204 252.903 232.204 255.864 232.204C255.864 222.224 255.864 212.624 256.817 203.01C261.897 202.622 266.978 202.234 272.763 201.618C273.492 201.697 274.221 201.776 275.332 202.493C275.557 204.983 275.782 207.473 275.116 210.116C272.409 210.06 269.702 210.005 266.928 209.307C265.583 209.627 264.237 209.947 262.498 210.822C259.298 213.379 258.723 216.381 261.726 219.289C264.093 221.581 267.426 221.79 269.021 218.794C271.541 214.058 275.015 215.431 279.254 215.924C279.254 221.56 279.254 226.946 279.254 232.232C281.945 232.232 284.019 232.232 286.459 232.232C286.459 223.253 286.439 214.629 286.481 206.006C286.488 204.709 286.536 202.391 286.993 202.278C290.56 201.398 289.556 198.556 289.798 195.463C288.54 194.973 287.284 194.062 286.024 194.056C267.261 193.966 248.497 193.965 229.734 194.063C228.503 194.07 227.276 195.044 225.374 195.752C223.242 193.561 221.271 191.179 218.949 189.212C211.184 182.634 200.72 184.644 192.518 194.289C192.292 194.655 192.065 195.021 191.257 195.729C190.597 195.666 189.938 195.602 188.888 194.867C187.893 194.163 186.898 193.46 186.094 192.037Z" fill="#333758"/>
<path d="M160.99 248.009C163.183 247.532 165.375 247.052 167.569 246.58C168.202 246.444 168.852 246.186 169.475 246.235C176.473 246.78 183.466 247.867 190.462 247.879C262.353 248.003 334.245 247.97 406.137 247.892C408.651 247.889 411.234 246.367 413.658 246.65C415.763 246.896 417.686 248.698 420.003 250.01C408.76 293.261 381.557 322.83 341.125 340.192C330.436 344.783 318.45 346.353 306.232 349.141C303.268 348.637 301.131 348.302 299.28 347.723C301.147 347.068 302.707 346.498 304.315 346.271C310.497 345.397 316.889 345.341 322.849 343.696C341.457 338.559 358.574 330.286 373.522 317.82C393.187 301.421 407.611 281.451 415.818 257.059C418.082 250.331 417.926 249.759 410.743 249.76C331.994 249.765 253.244 249.773 174.494 249.763C170.004 249.762 165.514 249.609 161.011 249.274C160.995 248.684 160.992 248.346 160.99 248.009Z" fill="#663D3B"/>
<path d="M160.638 248.061C160.992 248.346 160.995 248.684 160.959 249.711C164.331 259.342 166.921 268.714 171.331 277.133C179.523 292.774 191.024 305.851 204.636 317.286C222.574 332.355 243.152 341.583 265.856 345.765C276.67 347.756 287.934 347.309 298.994 347.966C301.131 348.302 303.268 348.637 305.812 349.035C295.975 349.385 285.593 350.896 275.511 349.753C227.088 344.264 191.071 319.691 167.815 276.917C163.416 268.825 160.902 259.708 157.517 250.666C158.439 249.549 159.362 248.832 160.638 248.061Z" fill="#553E49"/>
<path d="M163.008 177.978C161.426 177.932 159.843 177.887 157.789 177.763C161.709 159.595 170.27 143.521 181.753 129.074C201.111 104.718 225.895 88.5039 256.844 81.2512C259.369 81.7343 261.242 81.9081 262.905 82.3885C255.807 84.6098 248.676 85.9161 242.083 88.5643C227.88 94.2701 214.55 101.657 202.661 111.996C195.537 119.371 188.744 126.648 181.964 133.952C181.978 133.979 181.924 133.953 181.624 134.105C175.878 144.168 170.432 154.079 164.923 164.192C164.86 164.394 164.812 164.814 164.593 165.021C164.217 165.8 164.06 166.371 163.943 166.974C163.982 167.007 163.912 166.938 163.65 167.181C163.197 170.614 158.41 173.634 163.025 177.246C163.016 177.49 163.008 177.978 163.008 177.978Z" fill="#4E3B46"/>
<path d="M420.393 176.393C419.897 176.841 419.356 176.904 418.36 176.936C417.905 176.906 417.81 176.808 417.848 176.439C415.619 170.365 413.352 164.659 411.043 158.966C411.002 158.98 411.078 158.935 411.088 158.56C408.441 153.387 405.782 148.588 402.954 143.499C392.362 125.927 378.414 112.044 361.405 101.36C353.558 96.4311 345.123 92.4395 337.422 88.0077C339.139 87.9536 340.389 87.9149 341.64 87.8762C350.769 92.8077 360.546 96.8376 368.907 102.839C394.433 121.161 411.628 145.692 420.393 176.393Z" fill="#59393F"/>
<path d="M263.116 82.0819C261.242 81.9082 259.368 81.7344 257.239 81.2583C283.693 73.955 309.939 75.7881 335.979 85.4529C336.168 85.7988 335.985 86.0154 335.565 86.0125C333.744 86.0168 332.342 86.0241 330.513 86.0204C328.441 85.8042 326.781 85.6794 325.152 85.3806C315.346 83.5816 305.599 80.6841 295.732 80.2018C284.917 79.673 273.993 81.3603 263.116 82.0819Z" fill="#463442"/>
<path d="M341.407 87.5818C340.389 87.9149 339.139 87.9536 337.182 87.9905C336.477 87.9887 336.023 87.8311 336.016 87.5288C336.001 86.8227 335.993 86.4191 335.985 86.0154C335.985 86.0154 336.168 85.7988 336.257 85.688C337.955 86.1472 339.564 86.7173 341.407 87.5818Z" fill="#463442"/>
<path d="M289.922 196.299C289.556 198.556 290.56 201.398 286.993 202.278C286.537 202.391 286.488 204.709 286.481 206.006C286.439 214.629 286.459 223.253 286.459 232.233C284.019 232.233 281.945 232.233 279.254 232.233C279.254 226.946 279.254 221.561 279.254 215.924C275.016 215.431 271.541 214.058 269.021 218.794C267.427 221.79 264.093 221.581 261.726 219.289C258.723 216.381 259.298 213.38 263.106 210.503C264.808 210.106 265.901 210.028 266.995 209.95C269.702 210.005 272.409 210.061 275.992 210.104C281.106 208.873 278.054 205.462 278.931 203.232C277.604 202.773 276.277 202.314 274.95 201.854C274.221 201.776 273.492 201.697 271.946 201.642C268.376 201.658 265.607 201.468 262.872 201.696C260.516 201.892 258.199 202.563 255.864 203.025C255.864 212.624 255.864 222.224 255.864 232.204C252.903 232.204 250.714 232.204 248.121 232.204C248.121 229.562 248.121 227.134 248.121 225.411C243.531 224.862 239.439 224.373 234.745 223.56C228.253 217.901 228.316 216.49 233.349 210.512C234.498 209.147 234.973 206.38 234.428 204.686C233.987 203.315 231.663 202.227 229.96 201.684C228.514 201.223 226.763 201.721 224.852 201.807C224.7 204.954 224.562 207.817 224.41 210.977C220.114 210.977 216.464 210.823 212.843 211.077C211.841 211.148 210.925 212.431 209.97 213.158C210.868 213.954 211.668 215.255 212.682 215.451C215.925 216.077 219.288 216.081 222.528 216.718C226.896 217.577 229.419 220.16 228.882 224.952C223.74 233.525 213.676 235.17 204.108 228.687C205.053 227.451 205.984 226.231 206.305 225.812C210.684 226.126 214.247 226.71 217.748 226.454C218.956 226.365 220.011 224.183 221.135 222.957C219.747 222.292 218.413 221.446 216.958 220.997C213.417 219.905 209.463 219.598 206.386 217.776C204.684 216.769 203.107 212.803 203.8 211.141C204.833 208.667 207.712 206.706 210.206 205.18C212.144 203.995 214.693 203.808 216.97 203.177C214.449 202.658 211.928 202.136 209.405 201.624C209.248 201.592 209.075 201.643 208.089 201.714C206.495 201.814 205.721 201.855 204.947 201.897C203.9 201.815 202.854 201.734 200.97 201.872C200.001 212.045 199.87 221.999 199.739 231.952C197.343 232.21 194.947 232.467 192.074 232.775C192.074 222.184 192.074 212.263 192.074 201.959C189.797 201.959 187.935 201.959 185.713 201.959C185.543 204.777 185.377 207.533 185.15 211.313C179.766 211.313 174.484 211.313 169.202 211.313C169.075 211.964 168.948 212.615 168.82 213.266C170.202 213.911 171.532 214.909 172.977 215.121C175.427 215.479 177.973 215.156 180.439 215.455C184.377 215.932 187.573 217.63 187.928 222.093C188.29 226.628 186.664 230.277 182.262 232.203C180.775 232.853 179.179 233.255 177.191 233.918C178.202 235.544 179.032 236.88 180.166 238.706C179.008 239.948 177.725 241.324 176.121 243.044C174.616 241.382 173.517 239.944 172.192 238.758C170.35 237.112 168.204 235.794 166.44 234.077C164.767 232.447 162.798 230.672 162.166 228.594C161.801 227.396 163.58 224.406 164.836 224.112C166.961 223.615 170.113 223.843 171.617 225.157C174.301 227.505 176.467 227.881 178.964 225.623C179.68 224.976 180.225 223.381 179.916 222.581C179.627 221.837 178.143 221.387 177.105 221.133C173.763 220.318 170.299 219.915 167.044 218.855C163.903 217.833 162.182 215.367 162.642 211.899C163.132 208.201 165.235 205.762 168.979 205.199C171.1 204.881 173.331 205.282 175.445 204.942C176.472 204.777 177.344 203.654 177.559 202.166C174.485 202.308 171.375 202.208 168.344 202.647C163.386 203.365 162.042 201.074 163.33 196.225C172.363 195.696 180.82 195.617 189.278 195.538C189.938 195.602 190.597 195.666 191.9 195.506C192.733 194.864 192.923 194.446 193.113 194.028C200.72 184.644 211.184 182.634 218.949 189.212C221.271 191.179 223.242 193.561 226.168 195.747C245.329 195.756 263.695 195.751 282.061 195.808C284.682 195.817 287.301 196.128 289.922 196.299ZM247.439 216.524C247.67 211.656 247.9 206.787 248.133 201.875C245.202 201.875 243.131 201.875 242.454 201.875C241.041 207.201 239.808 211.85 238.349 217.353C240.614 219.983 242.143 220.146 247.439 216.524ZM211.791 191.13C204.965 189.957 202.325 191.009 200.715 195.386C205.77 195.386 210.88 195.386 217.324 195.386C215.02 193.508 213.781 192.498 211.791 191.13Z" fill="#EDEFF2"/>
<path d="M370.285 231.97C368.049 232.228 365.813 232.485 363.006 232.809C363.006 229.726 363.006 227.193 363.006 224.542C354.871 226.484 347.308 224.844 344.603 217.645C343.781 215.455 343.355 213.531 346.318 211.91C350.907 209.398 351.045 206.726 347.1 201.988C346.335 201.758 346.147 201.795 345.959 201.833C343.611 202.468 339.895 199.087 339.107 205.066C339.132 207.921 339.163 209.893 339.098 211.863C338.867 218.877 338.603 225.89 338.352 232.903C336.217 232.671 334.082 232.439 331.661 231.614C331.368 222.688 331.426 214.355 331.294 206.024C331.272 204.632 330.421 203.252 329.953 201.867C329.522 201.792 329.091 201.717 327.909 201.893C327.04 212.141 326.923 222.138 326.806 232.135C326.564 232.122 326.363 232.205 325.699 232.497C323.281 232.607 321.367 232.607 319.037 232.607C319.037 226.522 319.037 221.262 319.037 216.078C317.169 215.801 315.725 215.587 314.175 215.357C314.175 213.093 314.175 211.036 314.175 209.005C315.957 208.732 317.403 208.51 318.884 208.282C318.884 206.024 318.884 203.958 318.884 201.892C318.397 202.164 317.91 202.436 317.423 202.707C316.263 201.143 315.103 199.578 313.943 198.013C313.999 197.581 314.055 197.148 314.574 196.325C323.036 195.822 331.036 195.709 339.47 195.67C342.254 195.689 344.604 195.634 347.353 195.692C348.854 195.728 349.953 195.651 351.51 195.657C372.295 195.677 392.622 195.614 413.315 195.673C414.448 195.878 415.215 195.959 415.981 196.041C415.981 197.68 415.981 199.319 415.981 201.135C413.942 201.419 412.186 201.664 410.068 201.959C410.068 211.972 410.068 221.897 410.068 232.209C407.477 232.209 405.263 232.209 402.555 232.209C402.555 226.923 402.555 221.68 402.555 215.405C397.982 218.031 394.209 220.198 390.092 222.563C388.994 220.935 388.004 219.468 386.828 217.723C387.916 216.704 388.916 215.769 389.897 214.851C389.687 214.435 389.548 213.928 389.415 213.929C387.46 213.95 384.638 213.284 383.76 214.293C382.512 215.727 382.387 218.406 382.391 220.552C382.392 221.665 383.48 223.053 384.46 223.836C387.667 226.395 387.485 228.978 384.645 232.187C378.73 229.602 375.996 224.647 374.455 217.971C374.253 216.516 374.189 215.735 374.125 214.954C374.483 213.89 374.84 212.826 375.497 211.239C377.568 209.024 379.339 207.333 381.532 205.512C383.979 205.125 386.004 204.869 388.338 204.807C391.184 206.062 393.721 207.125 396.408 208.531C398.031 208.584 399.506 208.294 401.188 207.737C401.396 206.049 401.397 204.628 401.698 202.986C400.976 202.465 399.953 202.164 398.585 201.748C397.521 201.698 396.804 201.764 395.619 201.752C390.241 201.977 385.331 202.279 380.272 202.518C379.874 202.455 379.708 202.572 379.494 202.363C377.553 201.899 375.744 201.879 373.627 201.731C372.891 201.679 372.46 201.755 371.594 201.834C370.828 202.844 370.216 203.848 370.212 204.855C370.176 213.893 370.246 222.932 370.285 231.97ZM362.823 204.906C362.827 198.762 358.452 202.608 355.544 201.292C356.929 207.362 356.597 212.451 351.731 217.024C354.369 218.071 357.327 219.358 359.282 218.46C361.042 217.652 362.093 214.557 362.729 212.268C363.286 210.262 362.833 207.975 362.823 204.906Z" fill="#EDEFF3"/>
<path d="M313.949 221C313.43 226.044 311.223 230.055 306.196 231.576C301.279 233.065 296.623 232.129 292.797 228.407C288.756 224.475 289.014 222.855 294.388 219.924C296.342 222.89 298.014 227.297 302.762 224.764C304.266 223.961 306.068 220.551 305.541 219.709C304.058 217.342 301.433 215.691 299.258 213.757C298.573 213.908 297.888 214.059 297.203 214.209C298.154 212.797 298.964 211.258 300.092 210.007C301.317 208.649 303.026 207.701 304.114 206.264C304.43 205.846 303.238 203.478 302.91 203.516C300.946 203.741 299.023 204.378 297.107 204.946C296.657 205.079 296.287 205.479 295.616 205.936C294.378 205.013 293.101 204.061 291.893 203.16C294.885 194.526 303.092 193.056 310.966 200.136C314.331 205.645 313.007 210.107 309.995 213.93C311.421 216.48 312.685 218.74 313.949 221Z" fill="#EBEDF2"/>
<path d="M163.362 178.144C163.008 177.978 163.016 177.49 163.489 177.218C216.265 176.944 268.568 176.958 320.87 176.935C353.183 176.921 385.496 176.852 417.809 176.808C417.809 176.808 417.904 176.906 417.951 176.955C416.923 177.997 415.849 178.989 415.472 179.338C412.168 178.814 409.669 178.081 407.167 178.072C383.004 177.985 358.842 178.02 334.68 178.019C281.27 178.018 227.86 178.01 174.45 178.027C170.872 178.028 167.294 178.211 163.362 178.144Z" fill="#59393F"/>
<path d="M229.293 224.921C229.419 220.16 226.896 217.577 222.528 216.718C219.288 216.081 215.925 216.077 212.682 215.451C211.668 215.255 210.868 213.954 209.97 213.158C210.925 212.431 211.842 211.148 212.843 211.077C216.464 210.823 220.114 210.977 224.41 210.977C224.562 207.817 224.7 204.954 224.852 201.807C226.763 201.721 228.515 201.223 229.961 201.684C231.663 202.227 233.987 203.315 234.428 204.686C234.973 206.38 234.498 209.147 233.349 210.512C228.317 216.49 228.253 217.901 234.362 223.524C232.955 224.171 231.33 224.53 229.293 224.921Z" fill="#383D59"/>
<path d="M314.237 220.97C312.685 218.74 311.421 216.48 309.995 213.93C313.007 210.107 314.331 205.645 311.233 200.359C311.91 199.452 312.681 198.904 313.698 198.185C315.103 199.578 316.263 201.143 317.423 202.707C317.91 202.436 318.397 202.164 318.884 201.892C318.884 203.958 318.884 206.024 318.884 208.282C317.403 208.51 315.957 208.732 314.175 209.005C314.175 211.036 314.175 213.093 314.175 215.357C315.725 215.587 317.169 215.801 319.037 216.078C319.037 221.262 319.037 226.522 319.037 232.607C321.367 232.607 323.281 232.607 325.624 232.647C324.506 233.678 322.381 235.84 321.534 235.421C319.683 234.505 317.53 232.437 317.213 230.552C316.556 226.64 317.015 222.542 316.006 218.425C315.513 219.263 315.019 220.101 314.237 220.97Z" fill="#333857"/>
<path d="M289.86 195.881C287.301 196.128 284.682 195.817 282.061 195.808C263.695 195.751 245.329 195.756 226.505 195.655C227.276 195.044 228.503 194.07 229.734 194.063C248.497 193.965 267.261 193.966 286.024 194.056C287.284 194.062 288.54 194.973 289.86 195.881Z" fill="#22283E"/>
<path d="M412.949 195.55C392.622 195.614 372.295 195.677 351.506 195.394C351.023 194.696 351.002 194.346 350.981 193.996C371.361 193.994 391.741 193.991 412.572 194.25C412.998 194.857 412.974 195.204 412.949 195.55Z" fill="#22283E"/>
<path d="M339.886 188.262C339.357 189.392 338.828 190.522 337.824 192.071C331.786 196.95 326.584 195.154 321.483 191.581C321.483 191.581 321.232 191.805 321.208 191.305C320.781 186.276 322.961 186.15 326.145 187.955C329.368 189.782 332.368 190.204 334.981 186.947C335.433 186.826 335.886 186.706 336.921 186.732C338.298 187.339 339.092 187.8 339.886 188.262Z" fill="white"/>
<path d="M181.552 193.66C180.561 192.415 178.842 191.211 178.77 189.916C178.688 188.438 179.713 186.343 180.933 185.521C181.932 184.848 184.96 185.186 185.275 185.889C186.084 187.698 185.888 189.958 185.684 192.478C184.033 193.166 182.793 193.413 181.552 193.66Z" fill="white"/>
<path d="M321.3 191.969C326.583 195.154 331.786 196.95 337.675 192.36C338.179 192.725 338.355 193.22 338.769 194.123C339.016 194.886 339.025 195.24 339.035 195.595C331.036 195.709 323.036 195.822 314.58 195.997C312.849 195.131 311.575 194.204 310.159 193.174C314.052 192.884 317.585 192.621 321.3 191.969Z" fill="#333857"/>
<path d="M370.656 231.849C370.246 222.932 370.176 213.893 370.212 204.855C370.216 203.848 370.828 202.844 371.605 202.296C372.052 205.498 372.052 208.243 372.053 210.989C372.039 216.389 372.095 221.791 371.967 227.189C371.931 228.709 371.354 230.215 370.656 231.849Z" fill="#20274B"/>
<path d="M372.457 210.993C372.052 208.243 372.052 205.498 372.041 202.291C372.46 201.755 372.891 201.679 373.895 202.063C376.187 202.617 377.906 202.712 379.624 202.806C379.708 202.572 379.874 202.455 380.535 202.755C381.001 203.916 381.056 204.779 381.11 205.643C379.339 207.333 377.568 209.024 375.542 210.901C374.479 211.057 373.67 211.027 372.457 210.993Z" fill="#363C5A"/>
<path d="M338.799 232.867C338.603 225.889 338.867 218.877 339.099 211.863C339.164 209.893 339.132 207.92 339.223 205.488C339.866 205.882 340.907 206.729 340.921 207.594C341.046 215.162 341.043 222.734 340.908 230.302C340.892 231.154 339.825 231.989 338.799 232.867Z" fill="#20274B"/>
<path d="M181.055 193.762C182.793 193.413 184.033 193.166 185.588 192.837C186.898 193.46 187.893 194.164 189.083 195.203C180.82 195.617 172.363 195.696 163.434 195.783C164.279 195.193 165.57 194.154 166.914 194.078C171.452 193.822 176.008 193.909 181.055 193.762Z" fill="#22283E"/>
<path d="M334.775 186.707C332.368 190.204 329.368 189.782 326.145 187.955C322.961 186.15 320.781 186.276 321.312 191.173C320.347 190.912 318.576 190.465 318.346 189.606C318.106 188.705 319.268 186.503 319.949 186.446C322.694 186.216 325.487 186.675 328.266 186.724C330.365 186.761 332.468 186.562 334.775 186.707Z" fill="#333857"/>
<path d="M329.951 202.345C330.421 203.252 331.272 204.632 331.294 206.024C331.426 214.355 331.368 222.688 331.331 231.485C330.863 230.308 330.1 228.674 330.07 227.027C329.922 218.961 329.97 210.891 329.951 202.345Z" fill="#100F39"/>
<path d="M327.149 231.863C326.923 222.138 327.04 212.141 327.599 202.015C327.858 211.788 327.675 221.689 327.149 231.863Z" fill="#100F39"/>
<path d="M200.103 231.732C199.87 221.998 200.001 212.045 200.587 201.985C200.85 211.757 200.659 221.634 200.103 231.732Z" fill="#100F39"/>
<path d="M275.141 202.174C276.277 202.314 277.604 202.773 278.931 203.232C278.054 205.462 281.106 208.873 276.438 210.028C275.782 207.474 275.557 204.983 275.141 202.174Z" fill="#20274B"/>
<path d="M339.47 195.67C339.025 195.24 339.016 194.886 339 194.265C341.374 193.995 343.756 193.991 346.572 194.255C346.988 194.875 346.971 195.227 346.953 195.578C344.604 195.634 342.255 195.689 339.47 195.67Z" fill="#22283E"/>
<path d="M256.341 203.018C258.199 202.563 260.516 201.892 262.873 201.696C265.607 201.468 268.376 201.658 271.594 201.756C266.978 202.234 261.898 202.622 256.341 203.018Z" fill="#20274B"/>
<path d="M347.354 195.692C346.97 195.227 346.988 194.875 347.018 194.258C348.084 193.996 349.137 193.998 350.586 193.998C351.002 194.346 351.023 194.697 351.048 195.31C349.953 195.651 348.854 195.728 347.354 195.692Z" fill="#333857"/>
<path d="M339.987 187.985C339.092 187.8 338.298 187.339 337.258 186.632C337.721 186.12 338.621 185.465 339.089 185.693C339.622 185.953 339.771 187.002 339.987 187.985Z" fill="#333857"/>
<path d="M413.315 195.673C412.973 195.204 412.998 194.857 413.044 194.25C414.105 194.481 415.143 194.971 416.082 195.751C415.214 195.959 414.447 195.878 413.315 195.673Z" fill="#333857"/>
<path d="M266.962 209.629C265.901 210.028 264.808 210.106 263.303 210.225C264.237 209.947 265.583 209.627 266.962 209.629Z" fill="#20274B"/>
<path d="M373.844 215.135C374.189 215.735 374.254 216.516 374.25 217.684C373.976 217.153 373.77 216.235 373.844 215.135Z" fill="#20274B"/>
<path d="M205.133 202.162C205.721 201.855 206.496 201.814 207.651 201.853C207.128 202.097 206.223 202.262 205.133 202.162Z" fill="#100F39"/>
<path d="M346.031 202.023C346.147 201.795 346.335 201.758 346.754 201.892C346.691 202.114 346.397 202.164 346.031 202.023Z" fill="#20274B"/>
<path d="M192.816 194.158C192.923 194.446 192.733 194.864 192.19 195.335C192.065 195.022 192.292 194.655 192.816 194.158Z" fill="#22283E"/>
<path d="M299.28 347.723C287.934 347.309 276.67 347.756 265.856 345.765C243.152 341.583 222.574 332.354 204.636 317.286C191.024 305.851 179.523 292.774 171.331 277.133C166.921 268.714 164.331 259.342 160.973 249.963C165.514 249.609 170.004 249.762 174.494 249.763C253.244 249.773 331.994 249.765 410.743 249.759C417.926 249.759 418.082 250.33 415.818 257.059C407.611 281.451 393.187 301.421 373.522 317.82C358.574 330.286 341.457 338.559 322.849 343.696C316.889 345.341 310.497 345.397 304.315 346.271C302.707 346.498 301.147 347.068 299.28 347.723Z" fill="#E06732"/>
<path d="M336.023 87.8311C336.023 87.8311 336.477 87.9887 336.716 88.0059C345.123 92.4395 353.558 96.4311 361.405 101.36C378.414 112.044 392.362 125.927 402.931 143.899C405.745 149.371 408.412 154.153 411.078 158.935C411.078 158.935 411.002 158.98 411.014 159.363C412.507 164.846 413.989 169.946 415.728 175.932C412.487 175.932 410.535 175.932 408.582 175.932C330.975 175.932 253.368 175.956 175.761 175.862C171.642 175.857 167.524 174.863 163.522 174.344C163.688 171.193 163.8 169.066 163.912 166.938C163.912 166.938 163.982 167.007 164.221 166.815C164.578 166.02 164.695 165.417 164.812 164.814C164.812 164.814 164.86 164.394 165.271 164.143C166.987 162.971 168.293 162.05 169.599 161.128C169.497 158.286 170.273 155.831 171.44 153.578C174.851 146.993 178.418 140.489 181.924 133.953C181.924 133.953 181.978 133.979 182.316 133.93C189.111 127.481 195.595 121.107 201.987 114.643C202.61 114.013 202.67 112.827 202.992 111.899C214.55 101.657 227.881 94.2702 242.084 88.5644C248.676 85.9161 255.807 84.6098 262.905 82.3885C273.993 81.3603 284.917 79.673 295.733 80.2017C305.599 80.6841 315.346 83.5816 325.152 85.3806C326.781 85.6794 328.441 85.8042 330.748 86.2807C332.947 86.9784 334.485 87.4048 336.023 87.8311Z" fill="#E16631"/>
<path d="M163.65 167.181C163.8 169.066 163.688 171.193 163.522 174.344C167.524 174.863 171.642 175.858 175.761 175.862C253.368 175.956 330.975 175.932 408.582 175.932C410.535 175.932 412.487 175.932 415.728 175.932C413.989 169.946 412.507 164.846 411.055 159.35C413.352 164.659 415.619 170.365 417.848 176.439C385.497 176.852 353.184 176.921 320.871 176.935C268.568 176.958 216.265 176.944 163.498 176.974C158.41 173.634 163.197 170.614 163.65 167.181Z" fill="#AD6553"/>
<path d="M181.624 134.105C178.418 140.489 174.851 146.993 171.44 153.578C170.273 155.831 169.497 158.286 169.599 161.128C168.293 162.05 166.987 162.971 165.334 163.942C170.432 154.079 175.878 144.168 181.624 134.105Z" fill="#AD6553"/>
<path d="M202.661 111.996C202.67 112.827 202.61 114.013 201.987 114.643C195.595 121.107 189.111 127.481 182.302 133.903C188.744 126.648 195.537 119.371 202.661 111.996Z" fill="#AD6553"/>
<path d="M164.593 165.021C164.695 165.417 164.578 166.02 164.182 166.783C164.06 166.371 164.217 165.8 164.593 165.021Z" fill="#AD6553"/>
<path d="M411.088 158.56C408.411 154.153 405.745 149.371 403.101 144.189C405.782 148.588 408.44 153.387 411.088 158.56Z" fill="#AD6553"/>
<path d="M336.016 87.5288C334.485 87.4048 332.947 86.9784 331.174 86.2918C332.342 86.0241 333.744 86.0168 335.565 86.0125C335.993 86.4191 336.001 86.8227 336.016 87.5288Z" fill="#59393F"/>
<path d="M247.179 216.859C242.143 220.146 240.614 219.983 238.349 217.353C239.808 211.85 241.041 207.201 242.454 201.875C243.131 201.875 245.202 201.875 248.133 201.875C247.9 206.787 247.67 211.656 247.179 216.859Z" fill="#3D4261"/>
<path d="M212.167 191.309C213.781 192.497 215.02 193.508 217.324 195.386C210.88 195.386 205.77 195.386 200.715 195.386C202.325 191.009 204.965 189.956 212.167 191.309Z" fill="#383D59"/>
<path d="M362.824 205.359C362.833 207.975 363.286 210.262 362.729 212.268C362.094 214.557 361.042 217.652 359.282 218.46C357.328 219.358 354.369 218.07 351.731 217.024C356.597 212.451 356.929 207.361 355.544 201.292C358.452 202.608 362.827 198.762 362.824 205.359Z" fill="#383D59"/>
<path d="M396.259 208.187C393.722 207.125 391.184 206.062 388.559 204.524C391.01 203.308 393.548 202.569 396.087 201.83C396.804 201.764 397.522 201.698 398.784 202.059C400.019 202.727 400.709 202.967 401.399 203.207C401.398 204.628 401.396 206.049 400.719 207.708C398.781 208.027 397.52 208.107 396.259 208.187Z" fill="#3D4261"/>
<path d="M395.619 201.752C393.548 202.569 391.01 203.308 388.251 204.33C386.004 204.869 383.979 205.125 381.532 205.512C381.055 204.779 381.001 203.916 380.683 202.817C385.331 202.278 390.241 201.977 395.619 201.752Z" fill="#20274B"/>
<path d="M396.408 208.531C397.52 208.107 398.781 208.027 400.511 207.976C399.506 208.294 398.031 208.584 396.408 208.531Z" fill="#20274B"/>
<path d="M379.494 202.363C377.905 202.712 376.187 202.617 374.201 202.191C375.743 201.879 377.553 201.899 379.494 202.363Z" fill="#20274B"/>
<path d="M401.698 202.986C400.709 202.967 400.019 202.727 399.13 202.175C399.954 202.164 400.976 202.465 401.698 202.986Z" fill="#20274B"/>
<path d="M80.9368 536H71.38L85.9418 493.818H97.4347L111.976 536H102.419L91.853 503.457H91.5234L80.9368 536ZM80.3395 519.42H102.913V526.381H80.3395V519.42ZM167.695 508.586H158.673C158.509 507.419 158.172 506.382 157.664 505.476C157.156 504.556 156.504 503.773 155.708 503.128C154.911 502.482 153.991 501.988 152.948 501.645C151.918 501.302 150.799 501.13 149.59 501.13C147.407 501.13 145.505 501.672 143.885 502.757C142.265 503.828 141.008 505.393 140.116 507.453C139.223 509.499 138.777 511.984 138.777 514.909C138.777 517.916 139.223 520.443 140.116 522.489C141.022 524.535 142.285 526.079 143.906 527.123C145.526 528.166 147.4 528.688 149.529 528.688C150.723 528.688 151.829 528.53 152.845 528.214C153.874 527.899 154.788 527.439 155.584 526.835C156.38 526.217 157.039 525.468 157.561 524.589C158.097 523.711 158.468 522.708 158.673 521.582L167.695 521.624C167.461 523.56 166.878 525.427 165.944 527.226C165.024 529.011 163.781 530.611 162.216 532.025C160.664 533.425 158.811 534.538 156.655 535.362C154.513 536.172 152.089 536.577 149.384 536.577C145.622 536.577 142.258 535.725 139.292 534.023C136.34 532.32 134.006 529.855 132.289 526.629C130.587 523.402 129.735 519.495 129.735 514.909C129.735 510.309 130.6 506.396 132.33 503.169C134.061 499.942 136.409 497.484 139.374 495.795C142.34 494.093 145.677 493.241 149.384 493.241C151.829 493.241 154.094 493.585 156.181 494.271C158.282 494.958 160.143 495.96 161.763 497.278C163.383 498.583 164.701 500.183 165.718 502.077C166.747 503.972 167.406 506.142 167.695 508.586ZM196.973 505.95C196.808 504.288 196.101 502.997 194.851 502.077C193.602 501.157 191.906 500.697 189.764 500.697C188.309 500.697 187.08 500.903 186.077 501.315C185.075 501.714 184.306 502.27 183.77 502.984C183.249 503.698 182.988 504.508 182.988 505.414C182.96 506.169 183.118 506.828 183.461 507.391C183.818 507.954 184.306 508.442 184.924 508.854C185.542 509.252 186.256 509.602 187.066 509.904C187.876 510.192 188.741 510.44 189.661 510.646L193.451 511.552C195.291 511.964 196.98 512.513 198.518 513.2C200.055 513.886 201.387 514.731 202.513 515.733C203.639 516.735 204.511 517.916 205.129 519.276C205.761 520.635 206.083 522.193 206.097 523.951C206.083 526.532 205.424 528.771 204.12 530.665C202.829 532.547 200.962 534.009 198.518 535.053C196.087 536.082 193.156 536.597 189.723 536.597C186.318 536.597 183.352 536.076 180.825 535.032C178.312 533.988 176.349 532.444 174.934 530.398C173.534 528.338 172.799 525.791 172.731 522.756H181.361C181.457 524.171 181.862 525.352 182.576 526.299C183.304 527.233 184.272 527.94 185.48 528.42C186.702 528.887 188.082 529.121 189.62 529.121C191.13 529.121 192.442 528.901 193.554 528.462C194.68 528.022 195.552 527.411 196.17 526.629C196.787 525.846 197.096 524.946 197.096 523.93C197.096 522.983 196.815 522.187 196.252 521.541C195.703 520.896 194.893 520.347 193.822 519.893C192.764 519.44 191.467 519.028 189.929 518.658L185.336 517.504C181.779 516.639 178.971 515.287 176.912 513.447C174.852 511.607 173.829 509.128 173.843 506.011C173.829 503.457 174.509 501.226 175.882 499.317C177.269 497.409 179.171 495.919 181.587 494.848C184.004 493.777 186.75 493.241 189.826 493.241C192.956 493.241 195.689 493.777 198.023 494.848C200.371 495.919 202.198 497.409 203.502 499.317C204.806 501.226 205.479 503.437 205.52 505.95H196.973ZM212.096 536V493.818H228.738C231.924 493.818 234.642 494.388 236.894 495.528C239.16 496.654 240.883 498.253 242.064 500.327C243.259 502.386 243.856 504.81 243.856 507.597C243.856 510.398 243.252 512.808 242.043 514.827C240.835 516.831 239.084 518.369 236.791 519.44C234.512 520.511 231.752 521.047 228.511 521.047H217.369V513.879H227.07C228.772 513.879 230.187 513.646 231.312 513.179C232.438 512.712 233.276 512.012 233.825 511.078C234.388 510.144 234.67 508.984 234.67 507.597C234.67 506.197 234.388 505.016 233.825 504.055C233.276 503.094 232.432 502.366 231.292 501.871C230.166 501.363 228.745 501.109 227.028 501.109H221.014V536H212.096ZM234.876 516.804L245.359 536H235.514L225.257 516.804H234.876ZM272.501 493.818V536H263.582V493.818H272.501ZM288.447 517.71V536H279.673V504.364H288.036V509.945H288.406C289.107 508.105 290.281 506.65 291.928 505.579C293.576 504.494 295.574 503.952 297.922 503.952C300.119 503.952 302.034 504.432 303.668 505.393C305.302 506.355 306.572 507.728 307.479 509.513C308.385 511.284 308.838 513.399 308.838 515.857V536H300.064V517.422C300.078 515.486 299.583 513.975 298.581 512.891C297.579 511.792 296.199 511.243 294.441 511.243C293.26 511.243 292.217 511.497 291.31 512.005C290.418 512.513 289.718 513.254 289.21 514.229C288.715 515.191 288.461 516.351 288.447 517.71ZM315.753 536V504.364H324.528V536H315.753ZM320.161 500.286C318.857 500.286 317.738 499.853 316.804 498.988C315.884 498.109 315.424 497.059 315.424 495.837C315.424 494.628 315.884 493.592 316.804 492.727C317.738 491.848 318.857 491.408 320.161 491.408C321.465 491.408 322.578 491.848 323.498 492.727C324.431 493.592 324.898 494.628 324.898 495.837C324.898 497.059 324.431 498.109 323.498 498.988C322.578 499.853 321.465 500.286 320.161 500.286ZM348.384 504.364V510.955H329.332V504.364H348.384ZM333.657 496.784H342.431V526.278C342.431 527.089 342.555 527.72 342.802 528.173C343.049 528.613 343.392 528.922 343.832 529.1C344.285 529.279 344.807 529.368 345.397 529.368C345.809 529.368 346.221 529.334 346.633 529.265C347.045 529.183 347.361 529.121 347.58 529.08L348.96 535.609C348.521 535.746 347.903 535.904 347.107 536.082C346.31 536.275 345.342 536.391 344.202 536.433C342.088 536.515 340.234 536.233 338.641 535.588C337.062 534.943 335.833 533.94 334.955 532.581C334.076 531.222 333.643 529.505 333.657 527.432V496.784ZM354.099 536V504.364H362.873V536H354.099ZM358.507 500.286C357.202 500.286 356.083 499.853 355.15 498.988C354.23 498.109 353.77 497.059 353.77 495.837C353.77 494.628 354.23 493.592 355.15 492.727C356.083 491.848 357.202 491.408 358.507 491.408C359.811 491.408 360.923 491.848 361.843 492.727C362.777 493.592 363.244 494.628 363.244 495.837C363.244 497.059 362.777 498.109 361.843 498.988C360.923 499.853 359.811 500.286 358.507 500.286ZM378.923 536.597C376.905 536.597 375.106 536.247 373.527 535.547C371.948 534.833 370.698 533.782 369.778 532.396C368.872 530.995 368.419 529.251 368.419 527.164C368.419 525.406 368.742 523.93 369.387 522.736C370.032 521.541 370.911 520.58 372.023 519.852C373.135 519.125 374.399 518.575 375.813 518.205C377.241 517.834 378.738 517.573 380.303 517.422C382.143 517.23 383.626 517.051 384.752 516.886C385.878 516.708 386.695 516.447 387.203 516.104C387.711 515.76 387.965 515.252 387.965 514.58V514.456C387.965 513.152 387.553 512.142 386.729 511.428C385.919 510.714 384.766 510.357 383.269 510.357C381.69 510.357 380.434 510.707 379.5 511.408C378.566 512.094 377.948 512.959 377.646 514.003L369.531 513.344C369.943 511.421 370.753 509.76 371.961 508.359C373.17 506.945 374.728 505.86 376.637 505.105C378.559 504.336 380.784 503.952 383.31 503.952C385.068 503.952 386.75 504.158 388.356 504.57C389.977 504.982 391.412 505.62 392.661 506.485C393.924 507.35 394.92 508.462 395.648 509.822C396.375 511.167 396.739 512.781 396.739 514.662V536H388.418V531.613H388.171C387.663 532.602 386.983 533.473 386.132 534.229C385.281 534.97 384.258 535.554 383.063 535.979C381.868 536.391 380.488 536.597 378.923 536.597ZM381.436 530.542C382.727 530.542 383.866 530.288 384.855 529.78C385.844 529.258 386.619 528.558 387.182 527.679C387.745 526.8 388.027 525.805 388.027 524.692V521.335C387.752 521.514 387.375 521.679 386.894 521.83C386.427 521.967 385.898 522.097 385.308 522.221C384.718 522.331 384.127 522.434 383.537 522.53C382.946 522.612 382.411 522.688 381.93 522.756C380.9 522.907 380.001 523.148 379.232 523.477C378.463 523.807 377.866 524.253 377.44 524.816C377.015 525.365 376.802 526.052 376.802 526.876C376.802 528.07 377.234 528.983 378.099 529.615C378.978 530.233 380.09 530.542 381.436 530.542ZM420.374 504.364V510.955H401.322V504.364H420.374ZM405.647 496.784H414.421V526.278C414.421 527.089 414.545 527.72 414.792 528.173C415.039 528.613 415.383 528.922 415.822 529.1C416.275 529.279 416.797 529.368 417.387 529.368C417.799 529.368 418.211 529.334 418.623 529.265C419.035 529.183 419.351 529.121 419.57 529.08L420.95 535.609C420.511 535.746 419.893 535.904 419.097 536.082C418.3 536.275 417.332 536.391 416.193 536.433C414.078 536.515 412.224 536.233 410.632 535.588C409.052 534.943 407.824 533.94 406.945 532.581C406.066 531.222 405.633 529.505 405.647 527.432V496.784ZM426.089 536V504.364H434.863V536H426.089ZM430.497 500.286C429.193 500.286 428.073 499.853 427.14 498.988C426.22 498.109 425.76 497.059 425.76 495.837C425.76 494.628 426.22 493.592 427.14 492.727C428.073 491.848 429.193 491.408 430.497 491.408C431.801 491.408 432.914 491.848 433.834 492.727C434.767 493.592 435.234 494.628 435.234 495.837C435.234 497.059 434.767 498.109 433.834 498.988C432.914 499.853 431.801 500.286 430.497 500.286ZM471.386 504.364L460.326 536H450.44L439.379 504.364H448.648L455.218 526.999H455.548L462.097 504.364H471.386ZM489.275 536.618C486.02 536.618 483.219 535.959 480.871 534.641C478.537 533.309 476.738 531.428 475.475 528.997C474.212 526.553 473.58 523.663 473.58 520.326C473.58 517.072 474.212 514.216 475.475 511.758C476.738 509.3 478.516 507.384 480.809 506.011C483.116 504.638 485.821 503.952 488.924 503.952C491.011 503.952 492.954 504.288 494.753 504.961C496.566 505.62 498.145 506.616 499.49 507.947C500.85 509.279 501.907 510.955 502.662 512.973C503.417 514.978 503.795 517.326 503.795 520.017V522.427H477.081V516.989H495.536C495.536 515.726 495.261 514.607 494.712 513.632C494.163 512.657 493.401 511.895 492.426 511.346C491.465 510.783 490.346 510.501 489.069 510.501C487.737 510.501 486.556 510.81 485.526 511.428C484.51 512.032 483.713 512.849 483.137 513.879C482.56 514.895 482.265 516.028 482.251 517.278V522.447C482.251 524.013 482.539 525.365 483.116 526.505C483.707 527.645 484.537 528.523 485.608 529.141C486.679 529.759 487.949 530.068 489.419 530.068C490.394 530.068 491.286 529.931 492.096 529.656C492.906 529.382 493.6 528.97 494.176 528.42C494.753 527.871 495.193 527.198 495.495 526.402L503.61 526.938C503.198 528.887 502.353 530.59 501.076 532.045C499.813 533.487 498.179 534.613 496.174 535.423C494.183 536.22 491.883 536.618 489.275 536.618ZM523.11 536V493.818H531.884V509.678H532.151C532.536 508.826 533.092 507.961 533.82 507.082C534.561 506.19 535.522 505.448 536.703 504.858C537.898 504.254 539.381 503.952 541.152 503.952C543.459 503.952 545.587 504.556 547.537 505.764C549.487 506.959 551.045 508.764 552.213 511.181C553.38 513.584 553.963 516.598 553.963 520.223C553.963 523.752 553.393 526.732 552.254 529.162C551.128 531.579 549.59 533.412 547.64 534.661C545.704 535.897 543.535 536.515 541.132 536.515C539.429 536.515 537.98 536.233 536.786 535.67C535.605 535.107 534.637 534.4 533.882 533.549C533.126 532.684 532.55 531.812 532.151 530.933H531.76V536H523.11ZM531.698 520.182C531.698 522.063 531.959 523.704 532.481 525.104C533.003 526.505 533.758 527.597 534.747 528.379C535.735 529.148 536.937 529.533 538.351 529.533C539.779 529.533 540.987 529.141 541.976 528.359C542.965 527.562 543.713 526.464 544.221 525.063C544.743 523.649 545.004 522.022 545.004 520.182C545.004 518.356 544.75 516.749 544.242 515.362C543.734 513.975 542.985 512.891 541.997 512.108C541.008 511.325 539.793 510.934 538.351 510.934C536.923 510.934 535.715 511.312 534.726 512.067C533.751 512.822 533.003 513.893 532.481 515.28C531.959 516.667 531.698 518.301 531.698 520.182ZM564.215 547.864C563.103 547.864 562.059 547.774 561.085 547.596C560.123 547.431 559.327 547.218 558.695 546.957L560.673 540.408C561.702 540.723 562.629 540.895 563.453 540.923C564.291 540.95 565.012 540.758 565.616 540.346C566.234 539.934 566.735 539.234 567.119 538.245L567.634 536.906L556.286 504.364H565.513L572.062 527.597H572.392L579.004 504.364H588.293L575.996 539.419C575.406 541.122 574.603 542.605 573.587 543.868C572.584 545.145 571.314 546.127 569.776 546.813C568.238 547.513 566.385 547.864 564.215 547.864ZM615.29 493.818V536H606.371V493.818H615.29ZM631.237 517.71V536H622.462V504.364H630.825V509.945H631.195C631.896 508.105 633.07 506.65 634.717 505.579C636.365 504.494 638.363 503.952 640.711 503.952C642.908 503.952 644.823 504.432 646.457 505.393C648.091 506.355 649.362 507.728 650.268 509.513C651.174 511.284 651.627 513.399 651.627 515.857V536H642.853V517.422C642.867 515.486 642.372 513.975 641.37 512.891C640.368 511.792 638.988 511.243 637.23 511.243C636.049 511.243 635.006 511.497 634.099 512.005C633.207 512.513 632.507 513.254 631.999 514.229C631.504 515.191 631.25 516.351 631.237 517.71ZM670.2 536.515C667.797 536.515 665.621 535.897 663.671 534.661C661.735 533.412 660.197 531.579 659.057 529.162C657.931 526.732 657.368 523.752 657.368 520.223C657.368 516.598 657.952 513.584 659.119 511.181C660.286 508.764 661.838 506.959 663.774 505.764C665.724 504.556 667.859 503.952 670.18 503.952C671.951 503.952 673.427 504.254 674.608 504.858C675.802 505.448 676.764 506.19 677.491 507.082C678.233 507.961 678.796 508.826 679.18 509.678H679.448V493.818H688.202V536H679.551V530.933H679.18C678.768 531.812 678.185 532.684 677.43 533.549C676.688 534.4 675.72 535.107 674.525 535.67C673.345 536.233 671.903 536.515 670.2 536.515ZM672.981 529.533C674.395 529.533 675.59 529.148 676.564 528.379C677.553 527.597 678.308 526.505 678.83 525.104C679.366 523.704 679.633 522.063 679.633 520.182C679.633 518.301 679.372 516.667 678.851 515.28C678.329 513.893 677.574 512.822 676.585 512.067C675.596 511.312 674.395 510.934 672.981 510.934C671.539 510.934 670.324 511.325 669.335 512.108C668.346 512.891 667.598 513.975 667.09 515.362C666.582 516.749 666.328 518.356 666.328 520.182C666.328 522.022 666.582 523.649 667.09 525.063C667.612 526.464 668.36 527.562 669.335 528.359C670.324 529.141 671.539 529.533 672.981 529.533ZM695.415 536V504.364H704.19V536H695.415ZM699.823 500.286C698.519 500.286 697.4 499.853 696.466 498.988C695.546 498.109 695.086 497.059 695.086 495.837C695.086 494.628 695.546 493.592 696.466 492.727C697.4 491.848 698.519 491.408 699.823 491.408C701.128 491.408 702.24 491.848 703.16 492.727C704.094 493.592 704.56 494.628 704.56 495.837C704.56 497.059 704.094 498.109 703.16 498.988C702.24 499.853 701.128 500.286 699.823 500.286ZM720.24 536.597C718.221 536.597 716.422 536.247 714.843 535.547C713.264 534.833 712.015 533.782 711.095 532.396C710.188 530.995 709.735 529.251 709.735 527.164C709.735 525.406 710.058 523.93 710.703 522.736C711.349 521.541 712.227 520.58 713.34 519.852C714.452 519.125 715.715 518.575 717.129 518.205C718.557 517.834 720.054 517.573 721.619 517.422C723.459 517.23 724.942 517.051 726.068 516.886C727.194 516.708 728.011 516.447 728.519 516.104C729.027 515.76 729.281 515.252 729.281 514.58V514.456C729.281 513.152 728.869 512.142 728.046 511.428C727.235 510.714 726.082 510.357 724.585 510.357C723.006 510.357 721.75 510.707 720.816 511.408C719.883 512.094 719.265 512.959 718.963 514.003L710.847 513.344C711.259 511.421 712.07 509.76 713.278 508.359C714.486 506.945 716.045 505.86 717.953 505.105C719.876 504.336 722.1 503.952 724.627 503.952C726.384 503.952 728.066 504.158 729.673 504.57C731.293 504.982 732.728 505.62 733.977 506.485C735.241 507.35 736.236 508.462 736.964 509.822C737.692 511.167 738.056 512.781 738.056 514.662V536H729.735V531.613H729.487C728.979 532.602 728.3 533.473 727.448 534.229C726.597 534.97 725.574 535.554 724.379 535.979C723.185 536.391 721.805 536.597 720.24 536.597ZM722.752 530.542C724.043 530.542 725.183 530.288 726.171 529.78C727.16 529.258 727.936 528.558 728.499 527.679C729.062 526.8 729.343 525.805 729.343 524.692V521.335C729.069 521.514 728.691 521.679 728.21 521.83C727.744 521.967 727.215 522.097 726.624 522.221C726.034 522.331 725.444 522.434 724.853 522.53C724.263 522.612 723.727 522.688 723.247 522.756C722.217 522.907 721.317 523.148 720.548 523.477C719.78 523.807 719.182 524.253 718.757 524.816C718.331 525.365 718.118 526.052 718.118 526.876C718.118 528.07 718.551 528.983 719.416 529.615C720.294 530.233 721.407 530.542 722.752 530.542ZM753.637 517.71V536H744.863V504.364H753.225V509.945H753.596C754.296 508.105 755.47 506.65 757.118 505.579C758.765 504.494 760.763 503.952 763.111 503.952C765.308 503.952 767.224 504.432 768.858 505.393C770.492 506.355 771.762 507.728 772.668 509.513C773.574 511.284 774.028 513.399 774.028 515.857V536H765.253V517.422C765.267 515.486 764.773 513.975 763.77 512.891C762.768 511.792 761.388 511.243 759.631 511.243C758.45 511.243 757.406 511.497 756.5 512.005C755.607 512.513 754.907 513.254 754.399 514.229C753.905 515.191 753.651 516.351 753.637 517.71ZM819.87 514.909C819.87 519.509 818.998 523.422 817.255 526.649C815.525 529.876 813.163 532.341 810.169 534.043C807.19 535.732 803.839 536.577 800.118 536.577C796.37 536.577 793.006 535.725 790.026 534.023C787.046 532.32 784.691 529.855 782.961 526.629C781.231 523.402 780.366 519.495 780.366 514.909C780.366 510.309 781.231 506.396 782.961 503.169C784.691 499.942 787.046 497.484 790.026 495.795C793.006 494.093 796.37 493.241 800.118 493.241C803.839 493.241 807.19 494.093 810.169 495.795C813.163 497.484 815.525 499.942 817.255 503.169C818.998 506.396 819.87 510.309 819.87 514.909ZM810.828 514.909C810.828 511.929 810.382 509.417 809.49 507.371C808.611 505.325 807.368 503.773 805.762 502.716C804.155 501.659 802.274 501.13 800.118 501.13C797.962 501.13 796.081 501.659 794.475 502.716C792.868 503.773 791.619 505.325 790.726 507.371C789.847 509.417 789.408 511.929 789.408 514.909C789.408 517.889 789.847 520.402 790.726 522.447C791.619 524.493 792.868 526.045 794.475 527.102C796.081 528.16 797.962 528.688 800.118 528.688C802.274 528.688 804.155 528.16 805.762 527.102C807.368 526.045 808.611 524.493 809.49 522.447C810.382 520.402 810.828 517.889 810.828 514.909ZM826.312 536V504.364H835.086V536H826.312ZM830.72 500.286C829.415 500.286 828.296 499.853 827.362 498.988C826.442 498.109 825.982 497.059 825.982 495.837C825.982 494.628 826.442 493.592 827.362 492.727C828.296 491.848 829.415 491.408 830.72 491.408C832.024 491.408 833.136 491.848 834.056 492.727C834.99 493.592 835.457 494.628 835.457 495.837C835.457 497.059 834.99 498.109 834.056 498.988C833.136 499.853 832.024 500.286 830.72 500.286ZM850.889 493.818V536H842.115V493.818H850.889Z" fill="#CE1B36"/>
<path d="M152.853 385.545V435H142.397V385.545H152.853ZM172.909 413.557V435H162.622V397.909H172.426V404.453H172.861C173.682 402.296 175.058 400.589 176.99 399.334C178.922 398.062 181.264 397.426 184.017 397.426C186.593 397.426 188.838 397.99 190.754 399.116C192.67 400.243 194.159 401.853 195.221 403.946C196.284 406.023 196.815 408.502 196.815 411.384V435H186.528V413.219C186.544 410.949 185.965 409.178 184.79 407.906C183.614 406.618 181.997 405.974 179.936 405.974C178.551 405.974 177.328 406.272 176.265 406.868C175.219 407.464 174.398 408.333 173.802 409.476C173.223 410.603 172.925 411.963 172.909 413.557ZM219.95 435.604C217.133 435.604 214.582 434.879 212.296 433.43C210.026 431.965 208.223 429.816 206.886 426.983C205.566 424.134 204.906 420.64 204.906 416.503C204.906 412.253 205.591 408.719 206.959 405.902C208.327 403.069 210.146 400.952 212.416 399.551C214.702 398.134 217.206 397.426 219.926 397.426C222.003 397.426 223.734 397.78 225.118 398.489C226.519 399.181 227.645 400.05 228.499 401.097C229.368 402.127 230.028 403.141 230.479 404.139H230.793V385.545H241.056V435H230.913V429.06H230.479C229.996 430.09 229.312 431.112 228.426 432.126C227.557 433.125 226.422 433.954 225.021 434.614C223.637 435.274 221.947 435.604 219.95 435.604ZM223.21 427.418C224.868 427.418 226.269 426.967 227.412 426.065C228.571 425.148 229.457 423.868 230.068 422.226C230.696 420.584 231.01 418.66 231.01 416.455C231.01 414.249 230.704 412.333 230.092 410.707C229.481 409.081 228.595 407.826 227.436 406.94C226.277 406.055 224.868 405.612 223.21 405.612C221.52 405.612 220.095 406.071 218.936 406.989C217.777 407.906 216.9 409.178 216.304 410.804C215.708 412.43 215.411 414.313 215.411 416.455C215.411 418.612 215.708 420.519 216.304 422.178C216.916 423.82 217.793 425.107 218.936 426.041C220.095 426.959 221.52 427.418 223.21 427.418ZM250.873 435V397.909H261.16V435H250.873ZM256.041 393.128C254.511 393.128 253.199 392.621 252.105 391.607C251.026 390.576 250.487 389.345 250.487 387.912C250.487 386.495 251.026 385.28 252.105 384.266C253.199 383.235 254.511 382.72 256.041 382.72C257.57 382.72 258.874 383.235 259.953 384.266C261.047 385.28 261.595 386.495 261.595 387.912C261.595 389.345 261.047 390.576 259.953 391.607C258.874 392.621 257.57 393.128 256.041 393.128ZM281.337 435.7C278.971 435.7 276.862 435.29 275.011 434.469C273.159 433.632 271.694 432.4 270.616 430.774C269.553 429.132 269.022 427.088 269.022 424.641C269.022 422.58 269.4 420.849 270.157 419.449C270.914 418.048 271.944 416.921 273.248 416.068C274.552 415.215 276.033 414.571 277.691 414.136C279.365 413.702 281.12 413.396 282.955 413.219C285.112 412.993 286.851 412.784 288.171 412.591C289.491 412.382 290.449 412.076 291.045 411.673C291.64 411.271 291.938 410.675 291.938 409.886V409.741C291.938 408.212 291.455 407.029 290.489 406.192C289.539 405.355 288.187 404.936 286.432 404.936C284.581 404.936 283.108 405.347 282.013 406.168C280.919 406.973 280.194 407.987 279.84 409.21L270.326 408.438C270.809 406.184 271.759 404.236 273.175 402.594C274.592 400.936 276.419 399.664 278.657 398.778C280.911 397.877 283.519 397.426 286.481 397.426C288.541 397.426 290.513 397.668 292.397 398.151C294.297 398.634 295.979 399.382 297.444 400.396C298.925 401.411 300.092 402.714 300.945 404.308C301.798 405.886 302.225 407.777 302.225 409.983V435H292.469V429.857H292.18C291.584 431.016 290.787 432.038 289.789 432.923C288.791 433.793 287.592 434.477 286.191 434.976C284.79 435.459 283.173 435.7 281.337 435.7ZM284.283 428.601C285.797 428.601 287.133 428.303 288.292 427.707C289.451 427.096 290.36 426.275 291.021 425.244C291.681 424.214 292.011 423.047 292.011 421.743V417.807C291.689 418.016 291.246 418.209 290.682 418.386C290.135 418.547 289.515 418.7 288.823 418.845C288.131 418.974 287.439 419.095 286.746 419.207C286.054 419.304 285.426 419.393 284.863 419.473C283.655 419.65 282.601 419.932 281.7 420.318C280.798 420.705 280.098 421.228 279.599 421.888C279.1 422.532 278.85 423.337 278.85 424.303C278.85 425.703 279.357 426.774 280.371 427.514C281.402 428.239 282.706 428.601 284.283 428.601ZM321.853 413.557V435H311.566V397.909H321.37V404.453H321.805C322.626 402.296 324.002 400.589 325.934 399.334C327.866 398.062 330.208 397.426 332.961 397.426C335.537 397.426 337.782 397.99 339.698 399.116C341.614 400.243 343.103 401.853 344.165 403.946C345.228 406.023 345.759 408.502 345.759 411.384V435H335.472V413.219C335.488 410.949 334.909 409.178 333.734 407.906C332.558 406.618 330.94 405.974 328.88 405.974C327.495 405.974 326.272 406.272 325.209 406.868C324.163 407.464 323.342 408.333 322.746 409.476C322.167 410.603 321.869 411.963 321.853 413.557ZM400.866 410.273C400.866 415.666 399.844 420.254 397.799 424.037C395.771 427.82 393.002 430.71 389.492 432.706C385.999 434.686 382.071 435.676 377.708 435.676C373.313 435.676 369.369 434.678 365.876 432.682C362.382 430.686 359.622 427.796 357.593 424.013C355.565 420.23 354.551 415.65 354.551 410.273C354.551 404.88 355.565 400.292 357.593 396.509C359.622 392.725 362.382 389.844 365.876 387.864C369.369 385.867 373.313 384.869 377.708 384.869C382.071 384.869 385.999 385.867 389.492 387.864C393.002 389.844 395.771 392.725 397.799 396.509C399.844 400.292 400.866 404.88 400.866 410.273ZM390.265 410.273C390.265 406.779 389.742 403.833 388.695 401.435C387.665 399.036 386.208 397.217 384.325 395.977C382.441 394.738 380.236 394.118 377.708 394.118C375.181 394.118 372.975 394.738 371.092 395.977C369.208 397.217 367.743 399.036 366.697 401.435C365.667 403.833 365.151 406.779 365.151 410.273C365.151 413.766 365.667 416.712 366.697 419.111C367.743 421.509 369.208 423.329 371.092 424.568C372.975 425.808 375.181 426.428 377.708 426.428C380.236 426.428 382.441 425.808 384.325 424.568C386.208 423.329 387.665 421.509 388.695 419.111C389.742 416.712 390.265 413.766 390.265 410.273ZM409.778 435V397.909H420.065V435H409.778ZM414.946 393.128C413.416 393.128 412.104 392.621 411.01 391.607C409.931 390.576 409.392 389.345 409.392 387.912C409.392 386.495 409.931 385.28 411.01 384.266C412.104 383.235 413.416 382.72 414.946 382.72C416.475 382.72 417.779 383.235 418.858 384.266C419.952 385.28 420.5 386.495 420.5 387.912C420.5 389.345 419.952 390.576 418.858 391.607C417.779 392.621 416.475 393.128 414.946 393.128ZM439.952 385.545V435H429.665V385.545H439.952Z" fill="#333857"/>
<path d="M498.314 436H488.428L503.491 392.364H515.381L530.423 436H520.537L509.607 402.335H509.266L498.314 436ZM497.696 418.848H521.048V426.05H497.696V418.848ZM544.837 436.618C542.749 436.618 540.888 436.256 539.255 435.531C537.621 434.793 536.329 433.706 535.377 432.271C534.44 430.822 533.971 429.018 533.971 426.859C533.971 425.041 534.305 423.514 534.972 422.278C535.64 421.043 536.549 420.048 537.7 419.295C538.85 418.543 540.157 417.974 541.62 417.591C543.097 417.207 544.646 416.938 546.265 416.781C548.168 416.582 549.702 416.398 550.867 416.227C552.032 416.043 552.877 415.773 553.403 415.418C553.928 415.062 554.191 414.537 554.191 413.841V413.713C554.191 412.364 553.765 411.32 552.913 410.581C552.075 409.842 550.881 409.473 549.333 409.473C547.7 409.473 546.4 409.835 545.434 410.56C544.468 411.27 543.829 412.165 543.516 413.244L535.121 412.562C535.548 410.574 536.386 408.855 537.636 407.406C538.886 405.943 540.498 404.821 542.472 404.04C544.461 403.244 546.762 402.847 549.376 402.847C551.194 402.847 552.934 403.06 554.596 403.486C556.272 403.912 557.756 404.572 559.049 405.467C560.356 406.362 561.386 407.513 562.138 408.919C562.891 410.311 563.268 411.98 563.268 413.926V436H554.66V431.462H554.404C553.879 432.484 553.175 433.386 552.295 434.168C551.414 434.935 550.356 435.538 549.12 435.979C547.884 436.405 546.457 436.618 544.837 436.618ZM547.437 430.354C548.772 430.354 549.951 430.091 550.974 429.565C551.996 429.026 552.799 428.301 553.381 427.392C553.964 426.483 554.255 425.453 554.255 424.303V420.83C553.971 421.014 553.58 421.185 553.083 421.341C552.6 421.483 552.053 421.618 551.442 421.746C550.832 421.859 550.221 421.966 549.61 422.065C548.999 422.151 548.445 422.229 547.948 422.3C546.883 422.456 545.952 422.705 545.157 423.045C544.362 423.386 543.744 423.848 543.303 424.43C542.863 424.999 542.643 425.709 542.643 426.561C542.643 427.797 543.09 428.741 543.985 429.395C544.894 430.034 546.045 430.354 547.437 430.354ZM570.31 436V403.273H579.109V408.983H579.45C580.047 406.952 581.048 405.418 582.455 404.381C583.861 403.33 585.48 402.804 587.312 402.804C587.767 402.804 588.257 402.832 588.783 402.889C589.308 402.946 589.77 403.024 590.168 403.124V411.178C589.741 411.05 589.152 410.936 588.399 410.837C587.646 410.737 586.957 410.688 586.332 410.688C584.997 410.688 583.804 410.979 582.753 411.561C581.716 412.129 580.892 412.925 580.281 413.947C579.685 414.97 579.386 416.149 579.386 417.484V436H570.31ZM608.124 436.639C604.814 436.639 601.952 435.936 599.537 434.53C597.137 433.109 595.283 431.135 593.976 428.607C592.669 426.064 592.016 423.116 592.016 419.764C592.016 416.384 592.669 413.429 593.976 410.901C595.283 408.358 597.137 406.384 599.537 404.977C601.952 403.557 604.814 402.847 608.124 402.847C611.434 402.847 614.289 403.557 616.689 404.977C619.104 406.384 620.965 408.358 622.272 410.901C623.578 413.429 624.232 416.384 624.232 419.764C624.232 423.116 623.578 426.064 622.272 428.607C620.965 431.135 619.104 433.109 616.689 434.53C614.289 435.936 611.434 436.639 608.124 436.639ZM608.167 429.608C609.672 429.608 610.929 429.182 611.938 428.33C612.946 427.463 613.706 426.284 614.218 424.793C614.743 423.301 615.006 421.604 615.006 419.7C615.006 417.797 614.743 416.099 614.218 414.608C613.706 413.116 612.946 411.937 611.938 411.071C610.929 410.205 609.672 409.771 608.167 409.771C606.647 409.771 605.368 410.205 604.331 411.071C603.309 411.937 602.534 413.116 602.009 414.608C601.498 416.099 601.242 417.797 601.242 419.7C601.242 421.604 601.498 423.301 602.009 424.793C602.534 426.284 603.309 427.463 604.331 428.33C605.368 429.182 606.647 429.608 608.167 429.608ZM644.878 448.955C641.938 448.955 639.417 448.55 637.314 447.74C635.226 446.945 633.564 445.858 632.328 444.48C631.093 443.102 630.29 441.554 629.921 439.835L638.316 438.706C638.571 439.359 638.976 439.97 639.53 440.538C640.084 441.107 640.816 441.561 641.725 441.902C642.648 442.257 643.77 442.435 645.091 442.435C647.066 442.435 648.692 441.952 649.971 440.986C651.263 440.034 651.909 438.436 651.909 436.192V430.205H651.526C651.128 431.114 650.532 431.973 649.736 432.783C648.941 433.592 647.918 434.253 646.668 434.764C645.418 435.276 643.926 435.531 642.194 435.531C639.736 435.531 637.499 434.963 635.482 433.827C633.479 432.676 631.881 430.922 630.688 428.564C629.509 426.192 628.919 423.195 628.919 419.572C628.919 415.865 629.523 412.768 630.73 410.283C631.938 407.797 633.543 405.936 635.546 404.7C637.563 403.464 639.772 402.847 642.172 402.847C644.005 402.847 645.539 403.159 646.775 403.784C648.01 404.395 649.005 405.162 649.757 406.085C650.525 406.994 651.114 407.889 651.526 408.77H651.867V403.273H660.88V436.32C660.88 439.104 660.198 441.433 658.834 443.308C657.471 445.183 655.581 446.589 653.167 447.527C650.766 448.479 648.003 448.955 644.878 448.955ZM645.07 428.713C646.533 428.713 647.769 428.351 648.777 427.626C649.8 426.888 650.581 425.837 651.121 424.473C651.675 423.095 651.952 421.447 651.952 419.53C651.952 417.612 651.682 415.95 651.142 414.544C650.603 413.124 649.821 412.023 648.799 411.241C647.776 410.46 646.533 410.07 645.07 410.07C643.578 410.07 642.321 410.474 641.299 411.284C640.276 412.08 639.502 413.187 638.976 414.608C638.451 416.028 638.188 417.669 638.188 419.53C638.188 421.419 638.451 423.053 638.976 424.43C639.516 425.794 640.29 426.852 641.299 427.605C642.321 428.344 643.578 428.713 645.07 428.713ZM673.706 448.273C672.556 448.273 671.476 448.18 670.468 447.996C669.473 447.825 668.65 447.605 667.996 447.335L670.042 440.56C671.107 440.886 672.066 441.064 672.918 441.092C673.784 441.121 674.53 440.922 675.155 440.496C675.794 440.07 676.313 439.345 676.711 438.322L677.243 436.938L665.503 403.273H675.049L681.824 427.307H682.165L689.005 403.273H698.614L685.894 439.537C685.283 441.298 684.452 442.832 683.401 444.139C682.364 445.46 681.05 446.476 679.459 447.186C677.868 447.911 675.951 448.273 673.706 448.273ZM711.712 436.618C709.624 436.618 707.763 436.256 706.13 435.531C704.496 434.793 703.204 433.706 702.252 432.271C701.315 430.822 700.846 429.018 700.846 426.859C700.846 425.041 701.18 423.514 701.847 422.278C702.515 421.043 703.424 420.048 704.575 419.295C705.725 418.543 707.032 417.974 708.495 417.591C709.972 417.207 711.521 416.938 713.14 416.781C715.043 416.582 716.577 416.398 717.742 416.227C718.907 416.043 719.752 415.773 720.278 415.418C720.803 415.062 721.066 414.537 721.066 413.841V413.713C721.066 412.364 720.64 411.32 719.788 410.581C718.95 409.842 717.756 409.473 716.208 409.473C714.575 409.473 713.275 409.835 712.309 410.56C711.343 411.27 710.704 412.165 710.391 413.244L701.996 412.562C702.423 410.574 703.261 408.855 704.511 407.406C705.761 405.943 707.373 404.821 709.347 404.04C711.336 403.244 713.637 402.847 716.251 402.847C718.069 402.847 719.809 403.06 721.471 403.486C723.147 403.912 724.631 404.572 725.924 405.467C727.231 406.362 728.261 407.513 729.013 408.919C729.766 410.311 730.143 411.98 730.143 413.926V436H721.535V431.462H721.279C720.754 432.484 720.05 433.386 719.17 434.168C718.289 434.935 717.231 435.538 715.995 435.979C714.759 436.405 713.332 436.618 711.712 436.618ZM714.312 430.354C715.647 430.354 716.826 430.091 717.849 429.565C718.871 429.026 719.674 428.301 720.256 427.392C720.839 426.483 721.13 425.453 721.13 424.303V420.83C720.846 421.014 720.455 421.185 719.958 421.341C719.475 421.483 718.928 421.618 718.317 421.746C717.707 421.859 717.096 421.966 716.485 422.065C715.874 422.151 715.32 422.229 714.823 422.3C713.758 422.456 712.827 422.705 712.032 423.045C711.237 423.386 710.619 423.848 710.178 424.43C709.738 424.999 709.518 425.709 709.518 426.561C709.518 427.797 709.965 428.741 710.86 429.395C711.769 430.034 712.92 430.354 714.312 430.354ZM737.185 436V403.273H745.835V409.047H746.219C746.901 407.129 748.037 405.616 749.628 404.509C751.219 403.401 753.122 402.847 755.338 402.847C757.582 402.847 759.493 403.408 761.07 404.53C762.646 405.638 763.697 407.143 764.223 409.047H764.564C765.232 407.172 766.439 405.673 768.186 404.551C769.947 403.415 772.028 402.847 774.429 402.847C777.483 402.847 779.962 403.82 781.865 405.766C783.783 407.697 784.741 410.439 784.741 413.99V436H775.686V415.78C775.686 413.962 775.203 412.598 774.237 411.689C773.271 410.78 772.064 410.325 770.615 410.325C768.967 410.325 767.682 410.851 766.759 411.902C765.835 412.939 765.374 414.31 765.374 416.014V436H756.574V415.588C756.574 413.983 756.112 412.705 755.189 411.753C754.28 410.801 753.08 410.325 751.588 410.325C750.58 410.325 749.67 410.581 748.861 411.092C748.065 411.589 747.433 412.293 746.964 413.202C746.496 414.097 746.261 415.148 746.261 416.355V436H737.185Z" fill="#18AE57"/>
</svg>
